<svg xmlns="http://www.w3.org/2000/svg" version="1.1" xmlns:xlink="http://www.w3.org/1999/xlink" xmlns:svgjs="http://svgjs.dev/svgjs" width="250" height="250" viewBox="0 0 2000 1247"><g transform="matrix(1,0,0,1,-1.2121212121212466,0.504858299595071)"><svg viewBox="0 0 396 247" data-background-color="#ffffff" preserveAspectRatio="xMidYMid meet" height="1247" width="2000" xmlns="http://www.w3.org/2000/svg" xmlns:xlink="http://www.w3.org/1999/xlink"><g id="tight-bounds" transform="matrix(1,0,0,1,0.2400000000000091,-0.09999999999999432)"><svg viewBox="0 0 395.52 247.2" height="247.2" width="395.52"><g><svg></svg></g><g><svg viewBox="0 0 395.52 247.2" height="247.2" width="395.52"><mask id="caece4c8-df48-4110-9791-b185040e2d97"><rect width="640" height="400" fill="white"></rect><g transform="matrix(1,0,0,1,124.57462365591397,37.08)"><svg viewBox="0 0 146.37075268817205 173.04" height="173.04" width="146.37075268817205"><g><svg viewBox="0 0 146.37075268817205 173.04" height="173.04" width="146.37075268817205"><g><svg viewBox="0 0 146.37075268817205 173.04" height="173.04" width="146.37075268817205"><g><svg viewBox="0 0 146.37075268817205 173.04" height="173.04" width="146.37075268817205"><g id="SvgjsG1495"><svg viewBox="0 0 146.37075268817205 173.04" height="173.04" width="146.37075268817205" id="SvgjsSvg1494"><g><svg viewBox="0 0 146.37075268817205 173.04" height="173.04" width="146.37075268817205"><g transform="matrix(1,0,0,1,0,0)"><svg width="146.37075268817205" viewBox="-4.75 -38.85 36.4 42.85" height="173.04" data-palette-color="#ff6b66"><path d="M16.65 0L10.25 0 10.25-14.08-0.75-34.85 6.3-34.85 13.63-19.7 20.65-34.85 27.65-34.85 16.65-13.63 16.65 0Z" opacity="1" transform="matrix(1,0,0,1,0,0)" fill="black" class="wordmark-text-0" id="SvgjsPath1493" stroke-width="7" stroke="black" stroke-linejoin="round"></path></svg></g></svg></g></svg></g></svg></g><g></g></svg></g></svg></g></svg></g></mask><g transform="matrix(1,0,0,1,124.57462365591397,37.08)"><svg viewBox="0 0 146.37075268817205 173.04" height="173.04" width="146.37075268817205"><g><svg viewBox="0 0 146.37075268817205 173.04" height="173.04" width="146.37075268817205"><g><svg viewBox="0 0 146.37075268817205 173.04" height="173.04" width="146.37075268817205"><g><svg viewBox="0 0 146.37075268817205 173.04" height="173.04" width="146.37075268817205"><g id="textblocktransform"><svg viewBox="0 0 146.37075268817205 173.04" height="173.04" width="146.37075268817205" id="textblock"><g><svg viewBox="0 0 146.37075268817205 173.04" height="173.04" width="146.37075268817205"><g transform="matrix(1,0,0,1,0,0)"><svg width="146.37075268817205" viewBox="-4.75 -38.85 36.4 42.85" height="173.04" data-palette-color="#ff6b66"><path d="M16.65 0L10.25 0 10.25-14.08-0.75-34.85 6.3-34.85 13.63-19.7 20.65-34.85 27.65-34.85 16.65-13.63 16.65 0Z" opacity="1" transform="matrix(1,0,0,1,0,0)" fill="#ff6b66" class="wordmark-text-0" data-fill-palette-color="primary" id="text-0"></path></svg></g></svg></g></svg></g></svg></g><g></g></svg></g></svg></g></svg></g><g mask="url(#caece4c8-df48-4110-9791-b185040e2d97)"><g transform="matrix(2.7244444444444444, 0, 0, 2.7244444444444444, 75.16, 1)"><svg xmlns="http://www.w3.org/2000/svg" xmlns:xlink="http://www.w3.org/1999/xlink" version="1.1" x="0" y="0" viewBox="5 5 90 90" style="enable-background:new 0 0 100 100;" xml:space="preserve" height="90" width="90" class="icon-none" data-fill-palette-color="accent" id="none"><path d="M95 50C95 25.1 74.9 5 50 5 25.1 5 5 25.1 5 50c0 24.9 20.1 45 45 45C74.9 95 95 74.9 95 50zM37.9 67.9H45V32.1h-7.1L50 20l12.1 12.1H55v35.7h7.1L50 80 37.9 67.9z" fill="#ee3e38" data-fill-palette-color="accent"></path></svg></g></g></svg></g><defs></defs></svg><rect width="395.52" height="247.2" fill="none" stroke="none" visibility="hidden"></rect></g></svg></g></svg>